<svg width="193" height="66" viewBox="0 0 193 66" fill="none" xmlns="http://www.w3.org/2000/svg">
<path d="M9.70308 43.212C8.22939 43.212 6.89701 42.9596 5.70595 42.4549C4.53508 41.9502 3.60645 41.2235 2.92008 40.2747C2.2337 39.3259 1.88042 38.2055 1.86023 36.9135H6.40242C6.46298 37.7815 6.76579 38.4679 7.31086 38.9726C7.87611 39.4773 8.64323 39.7296 9.61223 39.7296C10.6014 39.7296 11.3786 39.4975 11.9439 39.0332C12.5091 38.5487 12.7918 37.9228 12.7918 37.1557C12.7918 36.5299 12.6 36.0151 12.2164 35.6114C11.8329 35.2076 11.3484 34.8947 10.7629 34.6727C10.1977 34.4304 9.41036 34.168 8.40098 33.8853C7.02823 33.4816 5.90783 33.0879 5.03976 32.7044C4.19189 32.3006 3.45504 31.7051 2.82923 30.9178C2.22361 30.1103 1.92079 29.0403 1.92079 27.708C1.92079 26.4563 2.2337 25.3662 2.85951 24.4376C3.48533 23.509 4.36348 22.8024 5.49398 22.3179C6.62448 21.8132 7.91648 21.5609 9.36998 21.5609C11.5502 21.5609 13.3166 22.0958 14.6692 23.1658C16.042 24.2155 16.799 25.6892 16.9403 27.5868H12.277C12.2366 26.8601 11.9237 26.2646 11.3383 25.8002C10.773 25.3157 10.016 25.0735 9.06717 25.0735C8.23948 25.0735 7.57329 25.2855 7.06861 25.7094C6.58411 26.1333 6.34186 26.7491 6.34186 27.5566C6.34186 28.1218 6.52354 28.5962 6.88692 28.9798C7.27048 29.3432 7.73479 29.646 8.27986 29.8882C8.84511 30.1103 9.63242 30.3727 10.6418 30.6755C12.0145 31.0793 13.135 31.483 14.003 31.8868C14.8711 32.2905 15.618 32.8962 16.2438 33.7037C16.8696 34.5112 17.1825 35.571 17.1825 36.8832C17.1825 38.0137 16.8898 39.0634 16.3044 40.0324C15.719 41.0014 14.861 41.7787 13.7305 42.3641C12.6 42.9293 11.2575 43.212 9.70308 43.212ZM36.4528 34.2487C36.4528 34.8543 36.4124 35.3994 36.3317 35.8839H24.0677C24.1687 37.0952 24.5926 38.044 25.3396 38.7303C26.0865 39.4167 27.005 39.7599 28.0952 39.7599C29.6698 39.7599 30.7902 39.0836 31.4564 37.7311H36.0288C35.5443 39.3461 34.6157 40.6784 33.243 41.7282C31.8702 42.7577 30.1846 43.2725 28.186 43.2725C26.571 43.2725 25.1175 42.9193 23.8255 42.2127C22.5537 41.4859 21.5544 40.4665 20.8276 39.1543C20.1211 37.8421 19.7678 36.328 19.7678 34.6121C19.7678 32.876 20.1211 31.3518 20.8276 30.0396C21.5342 28.7274 22.5234 27.7181 23.7952 27.0115C25.067 26.3049 26.5306 25.9517 28.186 25.9517C29.7808 25.9517 31.204 26.2948 32.4556 26.9812C33.7275 27.6676 34.7066 28.6467 35.3929 29.9185C36.0995 31.1701 36.4528 32.6135 36.4528 34.2487ZM32.062 33.0375C32.0418 31.9473 31.6481 31.0793 30.881 30.4333C30.1139 29.7671 29.1752 29.434 28.0649 29.434C27.0151 29.434 26.1269 29.757 25.4001 30.403C24.6936 31.0288 24.2595 31.907 24.098 33.0375H32.062ZM60.3806 25.9819C62.4398 25.9819 64.0951 26.6178 65.3468 27.8897C66.6186 29.1413 67.2545 30.8976 67.2545 33.1586V43H63.0151V33.7339C63.0151 32.4217 62.682 31.4225 62.0158 30.7361C61.3496 30.0295 60.4412 29.6762 59.2905 29.6762C58.1398 29.6762 57.2213 30.0295 56.5349 30.7361C55.8687 31.4225 55.5356 32.4217 55.5356 33.7339V43H51.2963V33.7339C51.2963 32.4217 50.9632 31.4225 50.297 30.7361C49.6308 30.0295 48.7224 29.6762 47.5717 29.6762C46.4008 29.6762 45.4722 30.0295 44.7858 30.7361C44.1196 31.4225 43.7865 32.4217 43.7865 33.7339V43H39.5471V26.2242H43.7865V28.253C44.3316 27.5465 45.028 26.9913 45.8759 26.5876C46.744 26.1838 47.6928 25.9819 48.7224 25.9819C50.0345 25.9819 51.2054 26.2646 52.235 26.8298C53.2645 27.3749 54.062 28.1622 54.6272 29.1917C55.1723 28.2227 55.9596 27.4455 56.9891 26.8601C58.0389 26.2747 59.1694 25.9819 60.3806 25.9819ZM78.0301 43.212C76.6372 43.212 75.4057 42.9697 74.3358 42.4852C73.2861 42.0007 72.4584 41.3244 71.8527 40.4564C71.2471 39.5883 70.9241 38.6193 70.8837 37.5494H73.1246C73.2255 38.5789 73.6797 39.4874 74.4872 40.2747C75.2947 41.0418 76.4757 41.4254 78.0301 41.4254C79.4634 41.4254 80.5939 41.062 81.4216 40.3352C82.2695 39.5883 82.6934 38.6496 82.6934 37.5191C82.6934 36.6107 82.4613 35.8839 81.997 35.3388C81.5326 34.7736 80.9573 34.3597 80.2709 34.0973C79.5846 33.8147 78.6357 33.5119 77.4245 33.1889C76.0114 32.8053 74.891 32.4318 74.0633 32.0685C73.2356 31.7051 72.529 31.1398 71.9436 30.3727C71.3581 29.6056 71.0654 28.5659 71.0654 27.2537C71.0654 26.1636 71.3481 25.1946 71.9133 24.3467C72.4786 23.4787 73.276 22.8024 74.3055 22.3179C75.3351 21.8334 76.5161 21.5912 77.8484 21.5912C79.8066 21.5912 81.3812 22.0757 82.5723 23.0447C83.7836 23.9935 84.48 25.2249 84.6617 26.739H82.3603C82.219 25.8709 81.7446 25.1038 80.9371 24.4376C80.1296 23.7512 79.0395 23.408 77.6667 23.408C76.3949 23.408 75.3351 23.7512 74.4872 24.4376C73.6393 25.1038 73.2154 26.0223 73.2154 27.1932C73.2154 28.0814 73.4476 28.7981 73.9119 29.3432C74.3762 29.8882 74.9515 30.3021 75.6379 30.5847C76.3445 30.8673 77.2933 31.1701 78.4843 31.4931C79.8571 31.8767 80.9674 32.2602 81.8153 32.6438C82.6631 33.0072 83.3798 33.5724 83.9652 34.3396C84.5507 35.1067 84.8434 36.1362 84.8434 37.4282C84.8434 38.4174 84.581 39.3562 84.0561 40.2444C83.5312 41.1327 82.754 41.8493 81.7244 42.3944C80.6949 42.9394 79.4634 43.212 78.0301 43.212ZM87.9704 34.7332C87.9704 33.0173 88.3136 31.5234 89 30.2516C89.6863 28.9596 90.6352 27.9704 91.8464 27.284C93.0577 26.5775 94.4405 26.2242 95.9949 26.2242C98.0339 26.2242 99.7094 26.7289 101.022 27.7382C102.354 28.7476 103.212 30.1204 103.596 31.8565H101.324C101.042 30.6654 100.426 29.7368 99.4773 29.0706C98.5487 28.3842 97.3879 28.0411 95.9949 28.0411C94.8846 28.0411 93.8853 28.2934 92.9971 28.7981C92.1088 29.3028 91.4023 30.0598 90.8774 31.0692C90.3727 32.0584 90.1204 33.2797 90.1204 34.7332C90.1204 36.1867 90.3727 37.4182 90.8774 38.4275C91.4023 39.4369 92.1088 40.1939 92.9971 40.6986C93.8853 41.2033 94.8846 41.4557 95.9949 41.4557C97.3879 41.4557 98.5487 41.1226 99.4773 40.4564C100.426 39.77 101.042 38.8212 101.324 37.6099H103.596C103.212 39.3057 102.354 40.6683 101.022 41.6979C99.6893 42.7275 98.0137 43.2423 95.9949 43.2423C94.4405 43.2423 93.0577 42.8991 91.8464 42.2127C90.6352 41.5061 89.6863 40.5169 89 39.2451C88.3136 37.9531 87.9704 36.4492 87.9704 34.7332ZM106.541 34.7029C106.541 33.0072 106.874 31.5234 107.541 30.2516C108.227 28.9596 109.166 27.9704 110.357 27.284C111.568 26.5775 112.931 26.2242 114.445 26.2242C116.019 26.2242 117.372 26.5876 118.502 27.3143C119.653 28.0411 120.481 28.9697 120.985 30.1002V26.4664H123.105V43H120.985V39.336C120.461 40.4665 119.623 41.4052 118.472 42.1521C117.342 42.8789 115.989 43.2423 114.414 43.2423C112.921 43.2423 111.568 42.889 110.357 42.1824C109.166 41.4758 108.227 40.4766 107.541 39.1846C106.874 37.8926 106.541 36.3987 106.541 34.7029ZM120.985 34.7332C120.985 33.4008 120.713 32.23 120.168 31.2206C119.623 30.2112 118.876 29.434 117.927 28.8889C116.998 28.3439 115.969 28.0713 114.838 28.0713C113.668 28.0713 112.618 28.3338 111.689 28.8587C110.761 29.3835 110.024 30.1507 109.479 31.16C108.954 32.1492 108.691 33.3302 108.691 34.7029C108.691 36.0555 108.954 37.2466 109.479 38.2761C110.024 39.2855 110.761 40.0627 111.689 40.6078C112.618 41.1327 113.668 41.3951 114.838 41.3951C115.969 41.3951 116.998 41.1226 117.927 40.5775C118.876 40.0324 119.623 39.2552 120.168 38.2458C120.713 37.2365 120.985 36.0656 120.985 34.7332ZM135.696 26.1636C137.675 26.1636 139.29 26.7793 140.541 28.0108C141.793 29.222 142.419 30.9884 142.419 33.31V43H140.329V33.5522C140.329 31.7556 139.875 30.3828 138.967 29.434C138.078 28.4852 136.857 28.0108 135.303 28.0108C133.708 28.0108 132.436 28.5155 131.487 29.5248C130.538 30.5342 130.064 32.018 130.064 33.9762V43H127.944V26.4664H130.064V29.2826C130.589 28.2732 131.346 27.5061 132.335 26.9812C133.324 26.4362 134.445 26.1636 135.696 26.1636Z" fill="white"/>
<path d="M159.585 13.8326C151.757 28.503 166.32 36.7486 169.956 37.5265C196.9 43.2909 149.579 64.0987 142 65.4826C183.537 62.2306 208.868 34.1816 179.425 29.8611C160.939 27.1484 174.916 5.96315 184.385 8.21768C187.411 8.93819 192.349 10.5669 191.239 7.66093C187.715 -1.56678 169.932 -5.55579 159.585 13.8326Z" fill="#FFBD00"/>
</svg>
